<?xml version="1.0" standalone="no"?><!DOCTYPE svg PUBLIC "-//W3C//DTD SVG 1.1//EN" "http://www.w3.org/Graphics/SVG/1.1/DTD/svg11.dtd"><svg t="1615083608872" class="icon" viewBox="0 0 1024 1024" version="1.1" xmlns="http://www.w3.org/2000/svg" p-id="1537" xmlns:xlink="http://www.w3.org/1999/xlink" width="200" height="200"><defs><style type="text/css"></style></defs><path d="M903.166981 1024c-3.401993 0-10.20598-3.401993-13.607974-3.401993l-544.318937-544.318937c-6.803987-6.803987-6.803987-17.009967 0-23.813954l102.059801-102.0598c6.803987-6.803987 17.009967-6.803987 23.813953 0l544.318937 544.318936c3.401993 3.401993 3.401993 6.803987 3.401994 13.607974 3.401993 54.431894-57.833887 115.667774-115.667774 115.667774zM382.661997 462.671096L909.970967 989.980066c34.019934-3.401993 74.843854-44.225914 78.245847-78.245847L460.907844 384.425249l-78.245847 78.245847z" fill="#FFFFFF" p-id="1538"></path><path d="M18.648708 717.820598H11.844721c-6.803987-3.401993-10.20598-10.20598-10.20598-17.009967 0-163.295681 122.471761-299.375415 163.295681-340.199335l-23.813953-20.41196c-3.401993-6.803987-3.401993-20.41196 0-27.215947l170.099668-170.099668c3.401993 0 10.20598-3.401993 13.607973-3.401993 3.401993 0 10.20598 3.401993 13.607974 3.401993l20.41196 20.41196c40.82392-40.82392 176.903654-163.295681 340.199335-163.295681 6.803987 0 13.607973 3.401993 17.009967 10.20598s0 13.607973-3.401993 17.009967L467.711831 275.561462l37.421927 37.421927c3.401993 3.401993 6.803987 10.20598 6.803987 13.607973 0 3.401993-3.401993 10.20598-3.401994 13.607974l-170.099667 170.099667c-6.803987 6.803987-17.009967 6.803987-23.813954 0L273.79821 469.475083 32.256682 711.016611c-3.401993 3.401993-10.20598 6.803987-13.607974 6.803987zM178.542396 326.591362l20.41196 20.41196c6.803987 3.401993 6.803987 10.20598 6.803987 13.607974 0 3.401993-3.401993 10.20598-6.803987 13.607973 0 0-139.481728 125.873754-159.893688 282.365449l221.129568-221.129568c6.803987-6.803987 17.009967-6.803987 23.813954 0l37.421927 37.421926 146.285714-146.285714-37.421927-37.421927c-3.401993-3.401993-3.401993-6.803987-3.401993-13.607973 0-3.401993 3.401993-10.20598 3.401993-13.607974l221.129568-221.129568c-156.491694 23.813953-282.365449 159.893688-282.365448 159.893688 0 3.401993-6.803987 6.803987-10.20598 6.803987-3.401993 0-10.20598-3.401993-13.607974-3.401994l-20.41196-23.813953-146.285714 146.285714z" fill="#FFFFFF" p-id="1539"></path><path d="M188.748376 292.571429c-3.401993 0-10.20598 0-13.607974-3.401994L120.708509 231.335548c-23.813953-23.813953-23.813953-61.23588 0-85.049834l23.813953-23.813953c23.813953-23.813953 61.23588-23.813953 85.049834 0l54.431894 54.431893c3.401993 3.401993 3.401993 6.803987 3.401993 13.607974v13.607973L202.356349 289.169435c-3.401993 3.401993-10.20598 3.401993-13.607973 3.401994z m0-153.089701c-6.803987 0-13.607973 3.401993-17.009967 6.803986l-27.215947 27.215947c-10.20598 10.20598-10.20598 23.813953 0 34.019934l44.225914 44.225913 61.23588-61.23588L205.758343 146.285714c-3.401993-3.401993-10.20598-6.803987-17.009967-6.803986z" fill="#FFFFFF" p-id="1540"></path></svg>